<svg width="40" height="40" viewBox="0 0 40 40" fill="none" xmlns="http://www.w3.org/2000/svg">
<path d="M30.5767 6.26611H6.26237V34.9994H30.5767V6.26611Z" stroke="#464646" stroke-width="1.33333" stroke-miterlimit="10"/>
<path d="M11.5183 11.0584C12.2709 11.0584 12.881 10.4483 12.881 9.6957C12.881 8.94311 12.2709 8.33301 11.5183 8.33301C10.7657 8.33301 10.1556 8.94311 10.1556 9.6957C10.1556 10.4483 10.7657 11.0584 11.5183 11.0584Z" fill="#464646"/>
<path d="M25.1446 11.0584C25.8972 11.0584 26.5073 10.4483 26.5073 9.6957C26.5073 8.94311 25.8972 8.33301 25.1446 8.33301C24.392 8.33301 23.7819 8.94311 23.7819 9.6957C23.7819 10.4483 24.392 11.0584 25.1446 11.0584Z" fill="#464646"/>
<path d="M25.1859 9.79004C25.1859 15.7664 22.1685 18.4139 18.4308 18.4139C14.6932 18.4139 11.6758 15.7664 11.6758 9.79004" stroke="#464646" stroke-width="1.33333" stroke-miterlimit="10"/>
<path d="M35.0529 6.26611H30.5755V34.9994H35.0529V6.26611Z" stroke="#464646" stroke-width="1.33333" stroke-miterlimit="10"/>
</svg>
