<svg width="40" height="40" viewBox="0 0 40 40" fill="none" xmlns="http://www.w3.org/2000/svg">
<path d="M13.8678 13.4326L14.5012 15.266" stroke="#464646" stroke-width="1.33333" stroke-miterlimit="10"/>
<path d="M14.8672 16.2988L15.5172 18.1322" stroke="#464646" stroke-width="1.33333" stroke-miterlimit="10"/>
<path d="M15.8665 19.1489L16.5165 20.9989" stroke="#464646" stroke-width="1.33333" stroke-miterlimit="10"/>
<path d="M16.8854 22.0166L17.5354 23.8666" stroke="#464646" stroke-width="1.33333" stroke-miterlimit="10"/>
<path d="M17.8848 24.8828L18.5347 26.7328" stroke="#464646" stroke-width="1.33333" stroke-miterlimit="10"/>
<path d="M18.9004 27.749L19.5504 29.599" stroke="#464646" stroke-width="1.33333" stroke-miterlimit="10"/>
<path d="M34.4006 17.5165C35.284 18.3332 36.3173 18.5832 37.184 18.2665L38.784 22.8165L7.36731 33.8665L5.76731 29.3165C6.30064 29.1332 6.75064 28.7498 7.06731 28.1665C7.60064 27.2165 7.61731 25.9665 7.21731 24.8332C6.98398 24.1498 6.58397 23.4998 6.05064 23.0165C5.16731 22.1998 4.13398 21.9498 3.26731 22.2665L1.66731 17.7165L33.084 6.6665L34.684 11.2165C34.1506 11.3998 33.7006 11.7832 33.384 12.3665C32.534 13.8998 32.984 16.1998 34.4006 17.5165Z" stroke="#464646" stroke-width="1.33333" stroke-miterlimit="10"/>
</svg>
